<?xml version="1.0" encoding="UTF-8"?>
<svg width="100px" height="24px" viewBox="0 0 100 24" version="1.1" xmlns="http://www.w3.org/2000/svg" xmlns:xlink="http://www.w3.org/1999/xlink">
    <!-- Generator: Sketch 62 (91390) - https://sketch.com -->
    <title>letsencrypt-logo-horizontal</title>
    <desc>Created with Sketch.</desc>
    <g id="Kotsadm" stroke="none" stroke-width="1" fill="none" fill-rule="evenodd">
        <g id="SSL" transform="translate(-612.000000, -619.000000)" fill-rule="nonzero">
            <g id="Key/Cert-LetsEncrypt" transform="translate(340.000000, 522.000000)">
                <g id="letsencrypt-logo-horizontal" transform="translate(272.000000, 97.000000)">
                    <g id="svg_1" transform="translate(22.418879, 10.324484)" fill="#2C3C69">
                        <g id="svg_2" transform="translate(0.000000, 0.294985)">
                            <g id="svg_3">
                                <polygon id="svg_4" points="0.183186431 9.40383422 0.183186431 0.139233038 2.43392301 0.139233038 2.43392301 7.45398142 6.01917345 7.45398142 6.01917345 9.40353923 0.183186136 9.40353923 0.183186136 9.40383392"></polygon>
                                <path d="M13.4356923,6.22389351 C13.4356923,6.31120855 13.4356923,6.39852566 13.4356923,6.48584041 C13.4356923,6.57315516 13.4312678,6.6557531 13.4227156,6.73451357 L8.69911445,6.73451357 C8.71652035,6.91769794 8.77109174,7.08348083 8.86283127,7.23185782 C8.9545708,7.38023481 9.0722705,7.50855516 9.21592832,7.61799292 C9.35988319,7.72713835 9.52123923,7.81209469 9.70029587,7.87286195 C9.87876077,7.93421888 10.0643059,7.96460147 10.2563416,7.96460147 C10.5964596,7.96460147 10.8846617,7.90147552 11.1200587,7.77492655 C11.3557531,7.64837758 11.5474938,7.48495546 11.6958708,7.2840708 L13.1876088,8.22625369 C12.8823027,8.67109027 12.4790563,9.01356903 11.9772853,9.25339292 C11.4755165,9.49291976 10.8929209,9.61327316 10.2303835,9.61327316 C9.74159351,9.61327316 9.27935133,9.53657847 8.84336195,9.38436667 C8.40707994,9.23156283 8.02566401,9.00943923 7.69823038,8.71681504 C7.37138614,8.42477817 7.11386372,8.06489558 6.92625487,7.63746283 C6.73864602,7.21003009 6.64513304,6.72153481 6.64513304,6.17168053 C6.64513304,5.63982389 6.73657788,5.15752242 6.91976431,4.7259587 C7.10295074,4.29439499 7.35162183,3.92772832 7.66578171,3.62684307 C7.9796469,3.32566313 8.35014749,3.09233097 8.77817227,2.92654897 C9.20531032,2.76106195 9.66784749,2.67787581 10.1648968,2.67787581 C10.6445425,2.67787581 11.0852516,2.75870236 11.4864316,2.92005841 C11.8876115,3.08141445 12.2321543,3.31474897 12.520354,3.6200587 C12.808259,3.92536844 13.032446,4.2961649 13.1940994,4.73244808 C13.3551628,5.16843658 13.4356923,5.6660767 13.4356923,6.22389351 L13.4356923,6.22389351 Z M11.4598817,5.39941032 C11.4598817,5.05929233 11.3530971,4.76696165 11.1392333,4.52271416 C10.9253696,4.27876136 10.6047189,4.15634218 10.1775808,4.15634218 C9.96814159,4.15634218 9.77640059,4.18908555 9.6017708,4.25457227 C9.427141,4.320059 9.27492655,4.40944012 9.14365841,4.52271386 C9.01297965,4.6362826 8.908259,4.76932124 8.82979322,4.92212389 C8.75132743,5.07492566 8.70766903,5.23421799 8.69911445,5.39941032 L11.4598817,5.39941032 L11.4598817,5.39941032 Z" id="svg_5"></path>
                                <path d="M16.8637165,4.48377611 L16.8637165,6.9796469 C16.8637165,7.28613481 16.9227127,7.51563333 17.0407094,7.66932153 C17.1581121,7.82271298 17.369615,7.89882006 17.675223,7.89882006 C17.7796445,7.89882006 17.8908537,7.89056047 18.0088504,7.87256726 C18.1265501,7.85516136 18.2244855,7.82920354 18.303246,7.79409941 L18.3294965,9.36430767 C18.1811215,9.41651829 17.9935106,9.46224307 17.7669602,9.50176962 C17.5398248,9.54100354 17.3132746,9.56047316 17.0864316,9.56047316 C16.6501472,9.56047316 16.2834817,9.50560442 15.9870201,9.39645929 C15.6902658,9.28731622 15.452508,9.12979292 15.2740431,8.92389381 C15.0949841,8.71858437 14.966369,8.47374602 14.8879056,8.18938112 C14.8091451,7.90531121 14.7702059,7.58820059 14.7702059,7.23834897 L14.7702059,4.4837764 L13.7233044,4.4837764 L13.7233044,2.88731534 L14.7569322,2.88731534 L14.7569322,1.17315693 L16.8637162,1.17315693 L16.8637162,2.88731534 L18.3946903,2.88731534 L18.3946903,4.4837764 L16.8637162,4.4837764 L16.8637165,4.48377611 Z" id="svg_6"></path>
                                <path d="M25.3430661,4.81061917 C25.1684319,4.64513333 24.9637118,4.50560442 24.7280198,4.3920354 C24.4926204,4.27876136 24.2439516,4.22182891 23.9822971,4.22182891 C23.7814121,4.22182891 23.5961643,4.26135664 23.4262513,4.33952743 C23.256046,4.41828909 23.1710876,4.55368732 23.1710876,4.74513215 C23.1710876,4.92831858 23.2645982,5.05899735 23.4522094,5.13775782 C23.6398206,5.21651829 23.9430652,5.30353953 24.3616469,5.39941003 C24.6058956,5.45191681 24.8525027,5.52625369 25.1011761,5.62212301 C25.3498496,5.71799233 25.5743336,5.84454336 25.7749215,6.00147493 C25.9755139,6.15840649 26.1368699,6.35044218 26.2592914,6.57728496 C26.3811186,6.80413009 26.4424735,7.07463156 26.4424735,7.3884944 C26.4424735,7.79882065 26.3595853,8.14513215 26.1938047,8.42861268 C26.0280195,8.71209322 25.812092,8.94100206 25.546013,9.11563392 C25.2799339,9.29026578 24.9811183,9.41651799 24.6498496,9.49498584 C24.3182882,9.57374631 23.9867224,9.61268319 23.6554537,9.61268319 C23.1230074,9.61268319 22.6020617,9.5277292 22.0914413,9.35752153 C21.581415,9.18761121 21.156046,8.93657699 20.815928,8.60501327 L22.0197611,7.33569145 C22.2112071,7.54513304 22.4468991,7.71976283 22.7262519,7.85899587 C23.0053077,7.99881858 23.3020619,8.0684351 23.6162218,8.0684351 C23.7908516,8.0684351 23.963123,8.02684248 24.1330357,7.94395221 C24.303241,7.86135664 24.3881994,7.71504336 24.3881994,7.50589882 C24.3881994,7.30501386 24.2837735,7.15693156 24.0743319,7.06076519 C23.864895,6.96489587 23.5380507,6.86460206 23.0929171,6.75958643 C22.8660743,6.70737345 22.6392316,6.63775693 22.4123885,6.55044189 C22.1852487,6.46312684 21.9825947,6.34572212 21.8041254,6.19705015 C21.6253678,6.04896549 21.4790546,5.86578142 21.3657796,5.64749056 C21.2525044,5.42979292 21.195867,5.16784572 21.195867,4.86253628 C21.195867,4.46991062 21.2784625,4.13628201 21.4445401,3.86135605 C21.6103206,3.58643009 21.8238897,3.36224071 22.0858369,3.18760973 C22.3474914,3.01297876 22.6374622,2.88465988 22.9557499,2.80147463 C23.2740375,2.71828938 23.5902634,2.67699056 23.9047159,2.67699056 C24.3929162,2.67699056 24.8704982,2.75368614 25.3371652,2.90589941 C25.8038322,3.05870118 26.1988186,3.28761003 26.5215307,3.59291976 L25.3430661,4.81061829 L25.3430661,4.81061917 Z" id="svg_7"></path>
                                <polygon id="svg_8" points="30.5510304 9.40383422 30.5510304 0.139233038 36.7793484 0.139233038 36.7793484 2.02359882 32.7100274 2.02359882 32.7100274 3.77699115 36.5569301 3.77699115 36.5569301 5.56961652 32.7100274 5.56961652 32.7100274 7.49321534 37.0150404 7.49321534 37.0150404 9.40383392 30.5510304 9.40383392"></polygon>
                                <path d="M42.676992,9.40383422 L42.676992,5.84454395 C42.676992,5.66135752 42.6613552,5.48702124 42.6312696,5.32123953 C42.60059,5.15545782 42.5504431,5.00943923 42.4805316,4.88289145 C42.4106201,4.75663746 42.312685,4.65604749 42.186136,4.5817115 C42.059587,4.50796519 41.9002971,4.47050118 41.708554,4.47050118 C41.5168109,4.47050118 41.3486717,4.50796519 41.2047212,4.5817115 C41.0610634,4.65604749 40.9407083,4.75870206 40.8448389,4.88938083 C40.7489696,5.02005959 40.6769923,5.17079646 40.6292038,5.34070796 C40.581123,5.51091445 40.5572265,5.68761032 40.5572265,5.87079676 L40.5572265,9.40383422 L38.3982295,9.40383422 L38.3982295,2.88731504 L40.4787631,2.88731504 L40.4787631,3.79026519 L40.5050136,3.79026519 C40.583774,3.65073717 40.6858416,3.51356903 40.8126829,3.37846578 C40.9389392,3.24306755 41.0876112,3.12743392 41.2575239,3.03156342 C41.4277292,2.93569292 41.6129773,2.85693245 41.8138619,2.79587021 C42.0144543,2.73510295 42.2280233,2.7041295 42.4548661,2.7041295 C42.8911504,2.7041295 43.261651,2.78288997 43.5672543,2.93982271 C43.8728575,3.09675546 44.1188796,3.29970501 44.3067835,3.5480823 C44.4943947,3.79675457 44.6295,4.08259558 44.7123882,4.40501416 C44.7949838,4.7280233 44.8365785,5.05073776 44.8365785,5.37345103 L44.8365785,9.40353923 L42.6769917,9.40353923 L42.6769917,9.40383422 L42.676992,9.40383422 Z" id="svg_9"></path>
                                <path d="M50.3578209,4.9938056 C50.2353994,4.83687316 50.0696189,4.71062006 49.8604743,4.61445487 C49.6510375,4.51858437 49.436874,4.47050118 49.2191776,4.47050118 C48.9920378,4.47050118 48.7873177,4.51622478 48.6041313,4.60796431 C48.4209448,4.69970383 48.2640133,4.82212419 48.1330398,4.97433628 C48.0023634,5.12713923 47.8994139,5.3038351 47.8253705,5.50442507 C47.7513316,5.70531121 47.7141614,5.91858525 47.7141614,6.14572301 C47.7141614,6.37256578 47.7489684,6.58613717 47.8188799,6.78672714 C47.8884988,6.98761209 47.9908587,7.16430796 48.1262566,7.31681475 C48.2613578,7.46961652 48.4227183,7.58967463 48.6106218,7.67669705 C48.798233,7.76401209 49.009736,7.80737581 49.2451354,7.80737581 C49.4628366,7.80737581 49.6790566,7.76607817 49.8926301,7.68318555 C50.1062035,7.60029292 50.2787628,7.48023687 50.4094395,7.32330324 L51.6003003,8.7758118 C51.329792,9.03746401 50.9805324,9.24247876 50.5533944,9.39085575 C50.1259637,9.53893805 49.6722735,9.61327404 49.1926301,9.61327404 C48.6778779,9.61327404 48.1973475,9.53451357 47.7510345,9.37758201 C47.3050189,9.22065044 46.917405,8.9914469 46.5884994,8.69056077 C46.2592968,8.3896767 46.000595,8.0256646 45.8118044,7.59823186 C45.6230139,7.17079912 45.5289136,6.68672625 45.5289136,6.1457233 C45.5289136,5.61356962 45.6230094,5.13362891 45.8118044,4.70619499 C46.0005947,4.27905693 46.2592965,3.91445516 46.5884994,3.61356991 C46.917405,3.31238997 47.3053115,3.08141622 47.7510345,2.920059 C48.1973472,2.75870295 48.6734531,2.6778764 49.1796487,2.6778764 C49.4150481,2.6778764 49.6483817,2.6997056 49.879649,2.74365811 C50.1106239,2.78702183 50.3330375,2.84631298 50.5469035,2.92035516 C50.7607696,2.99439735 50.9569375,3.08613687 51.1356947,3.19528112 C51.3144519,3.30442537 51.4696236,3.42418997 51.6003003,3.55516224 L50.3578204,4.99380619 L50.3578209,4.9938056 Z" id="svg_10"></path>
                                <path d="M56.6466115,4.65368761 C56.5504496,4.62743363 56.4566375,4.61032507 56.3651926,4.60147463 C56.2737478,4.59262419 56.1840767,4.58820088 56.0970519,4.58820088 C55.8091513,4.58820088 55.5669643,4.64070767 55.3707965,4.74483746 C55.1746378,4.84926224 55.0177018,4.97522153 54.8997094,5.12330383 C54.7820053,5.27109115 54.696754,5.43215369 54.644541,5.60619381 C54.592328,5.78023392 54.5660776,5.93215339 54.5660776,6.06283215 L54.5660776,9.40353923 L52.4200617,9.40353923 L52.4200617,2.89498496 L54.4876142,2.89498496 L54.4876142,3.83716785 L54.5138646,3.83716785 C54.6796499,3.50324454 54.9147522,3.23097316 55.2206481,3.0200587 C55.5256708,2.80914425 55.8790625,2.70383481 56.2805354,2.70383481 C56.367551,2.70383481 56.4528021,2.70855428 56.5356947,2.71710855 C56.6182903,2.72566401 56.6861401,2.73893776 56.7386501,2.75634248 L56.6466112,4.65368732 L56.6466115,4.65368761 Z" id="svg_11"></path>
                                <path d="M61.6879083,10.385251 C61.5572319,10.725369 61.4109186,11.0286139 61.2495625,11.2946906 C61.0882065,11.5604726 60.896459,11.7873153 60.6740407,11.9752212 C60.4516224,12.1628324 60.1896755,12.3041292 59.8887938,12.4002956 C59.5879121,12.4961649 59.2321528,12.5442481 58.8224251,12.5442481 C58.6215401,12.5442481 58.4144617,12.5309743 58.2011808,12.5047192 C57.9870265,12.4784664 57.8017696,12.4436569 57.6448428,12.4002956 L57.8805304,10.5946903 C57.9849563,10.6292027 58.10059,10.6578162 58.2274404,10.6796466 C58.3536879,10.7011799 58.4693215,10.7120953 58.5740445,10.7120953 C58.9056059,10.7120953 59.1454345,10.6356932 59.2938091,10.4831864 C59.441887,10.3303826 59.5684404,10.1147496 59.6731634,9.83569381 L59.8826003,9.29941032 L57.1607743,2.88761091 L59.5421897,2.88761091 L60.9946914,7.07492655 L61.0339233,7.07492655 L62.3294979,2.88761091 L64.6061994,2.88761091 L61.6879088,10.385251 L61.6879083,10.385251 Z" id="svg_12"></path>
                                <path d="M72.4177,6.11946991 C72.4177,6.57315546 72.3477882,7.00943982 72.2082628,7.4280236 C72.0684401,7.84690206 71.8657817,8.21533894 71.5999997,8.53362861 C71.3339206,8.85221327 71.0088499,9.10737493 70.6250755,9.29941062 C70.2410041,9.49085664 69.8050168,9.58731563 69.3162224,9.58731563 C68.9150469,9.58731563 68.5356926,9.50678378 68.1778717,9.34542773 C67.8200507,9.18407168 67.5412965,8.96371711 67.3404118,8.68466136 L67.3144584,8.68466136 L67.3144584,12.5448381 L65.1684336,12.5448381 L65.1684336,2.88731534 L67.2097354,2.88731534 L67.2097354,3.68554572 L67.2489673,3.68554572 C67.4498522,3.42389351 67.7265448,3.19498584 68.0799366,2.99852537 C68.4330401,2.80235988 68.8495558,2.70412979 69.3295009,2.70412979 C69.8005879,2.70412979 70.227726,2.7958705 70.6117973,2.97905575 C70.9955717,3.16224218 71.3203543,3.41091445 71.5867215,3.72477847 C71.8530888,4.03864248 72.0578174,4.40324425 72.2017723,4.81740442 C72.3457271,5.23185841 72.4177,5.6660767 72.4177,6.11946962 L72.4177,6.11946991 Z M70.3371661,6.11946991 C70.3371661,5.91003068 70.304713,5.70531091 70.2392307,5.50442478 C70.1737395,5.30383481 70.0775776,5.12713894 69.951033,4.97433599 C69.8244796,4.8218292 69.665185,4.69763982 69.4734463,4.60147463 C69.2817077,4.50530944 69.0592894,4.45752212 68.8061917,4.45752212 C68.5619431,4.45752212 68.3436569,4.50560413 68.1519183,4.60147463 C67.9598826,4.69734513 67.796159,4.8238941 67.6610625,4.98082537 C67.5256599,5.13775782 67.4212339,5.31681357 67.3471906,5.51710885 C67.272859,5.71799499 67.2359858,5.92271475 67.2359858,6.13215398 C67.2359858,6.34159322 67.272859,6.54660796 67.3471906,6.74719794 C67.4212339,6.94808289 67.5256599,7.12654749 67.6610625,7.28348142 C67.796159,7.44041298 67.9598826,7.56725664 68.1519183,7.66312596 C68.3433599,7.75899764 68.5619431,7.80678378 68.8061917,7.80678378 C69.0589926,7.80678378 69.2814106,7.75899764 69.4734463,7.66312596 C69.665482,7.56725428 69.8244794,7.44041298 69.951033,7.28348142 C70.0775867,7.12654985 70.1737392,6.94542714 70.2392307,6.74041268 C70.3044248,6.53598761 70.3371661,6.32890914 70.3371661,6.11946991 L70.3371661,6.11946991 Z" id="svg_13"></path>
                                <path d="M75.8460209,4.48377611 L75.8460209,6.9796469 C75.8460209,7.28613481 75.9050215,7.51563333 76.0230139,7.66932153 C76.1404121,7.82271298 76.3519195,7.89882006 76.6575274,7.89882006 C76.7619534,7.89882006 76.8731581,7.89056047 76.9911501,7.87256726 C77.1088543,7.85516136 77.2067897,7.82920354 77.2855501,7.79409941 L77.3118006,9.36430767 C77.1634257,9.41651829 76.97581,9.46224307 76.749269,9.50176962 C76.5221245,9.54100354 76.2955743,9.56047316 76.068736,9.56047316 C75.6324516,9.56047316 75.2657817,9.50560442 74.9693201,9.39645929 C74.6725705,9.28731622 74.4348124,9.12979292 74.2563431,8.92389381 C74.0772885,8.71858437 73.9486737,8.47374602 73.8702103,8.18938112 C73.7914499,7.90531121 73.7525062,7.58820059 73.7525062,7.23834897 L73.7525062,4.4837764 L72.7056091,4.4837764 L72.7056091,2.88731534 L73.7392369,2.88731534 L73.7392369,1.17315693 L75.8460209,1.17315693 L75.8460209,2.88731534 L77.376995,2.88731534 L77.376995,4.4837764 L75.8460209,4.4837764 L75.8460209,4.48377611 Z" id="svg_14"></path>
                            </g>
                        </g>
                        <path d="M20.3569307,0.256636873 C19.7129782,0.256636873 19.2088487,0.720649263 19.2088487,1.31327434 C19.2088487,1.93746342 19.633331,2.35663687 20.2654861,2.35663687 C20.3194681,2.35663687 20.3704973,2.35162271 20.4185826,2.34188791 C20.3174021,2.8038354 19.8722684,3.13539882 19.4516209,3.20177021 L19.3660726,3.21533982 L19.3660726,4.21150472 L19.4769891,4.20088555 C19.9873124,4.15221268 20.4914419,3.92035457 20.8607631,3.56460206 C21.3421802,3.10059086 21.5967543,2.43067935 21.5967543,1.62713864 C21.5967543,0.833038938 21.0752233,0.256636873 20.3569304,0.256636873 L20.3569307,0.256636873 Z" id="svg_15"></path>
                    </g>
                    <g id="svg_16" transform="translate(5.309735, 5.309735)" fill="#F9A11D">
                        <path d="M8.40383422,5.47728643 L6.03215369,5.47728643 L6.03215369,4.25958673 C6.03215369,3.28702124 5.24070767,2.49586991 4.26814189,2.49586991 C3.29557522,2.49586991 2.50442507,3.28731593 2.50442507,4.25958673 L2.50442507,5.47728643 L0.132743363,5.47728643 L0.132743363,4.25958673 C0.132743363,1.97935074 1.98790501,0.123893805 4.26843658,0.123893805 C6.54896814,0.123893805 8.40412979,1.97905605 8.40412979,4.25958673 L8.40412979,5.47728643 L8.40383392,5.47728643 L8.40383422,5.47728643 Z" id="svg_17"></path>
                    </g>
                    <path d="M14.6702059,10.7870209 L4.48584071,10.7870209 C4.05103215,10.7870209 3.69528024,11.1427723 3.69528024,11.5775814 L3.69528024,19.111505 C3.69528024,19.546313 4.05103215,19.9020655 4.48584071,19.9020655 L14.6702059,19.9020655 C15.105015,19.9020655 15.4607664,19.546313 15.4607664,19.111505 L15.4607664,11.5775814 C15.4607664,11.1427723 15.105015,10.7870209 14.6702059,10.7870209 Z M10.0941006,15.7336289 L10.0941006,16.7545714 C10.0941006,17.039528 9.86283215,17.2705009 9.57817109,17.2705009 C9.29351003,17.2705009 9.06224159,17.0392333 9.06224159,16.7545714 L9.06224159,15.7339239 C8.74483746,15.5536879 8.53038289,15.2135699 8.53038289,14.8224195 C8.53038289,14.2436578 8.99970442,13.7746313 9.57817109,13.7746313 C10.1569316,13.7746313 10.6259581,14.2439528 10.6259581,14.8224195 C10.6259581,15.2132752 10.4115035,15.5533932 10.0941003,15.7336292 L10.0941006,15.7336289 Z" id="svg_18" fill="#2C3C69"></path>
                    <path d="M3.45339263,9.66371622 L0.995870501,9.66371622 C0.597345133,9.66371622 0.274336578,9.34070826 0.274336578,8.9421826 C0.274336578,8.54365693 0.597345133,8.22064897 0.995870501,8.22064897 L3.45339263,8.22064897 C3.8519177,8.22064897 4.17492625,8.54365811 4.17492625,8.9421826 C4.17492625,9.34070708 3.85162212,9.66371622 3.45339263,9.66371622 Z" id="svg_19" fill="#F9A11D"></path>
                    <path d="M5.18436608,5.79793569 C5.02330383,5.79793569 4.86076726,5.74424779 4.72654897,5.63362832 L2.78259617,4.03510354 C2.47492625,3.7820056 2.43038378,3.32743392 2.68377581,3.01946903 C2.93687316,2.71179971 3.39144543,2.66725664 3.69941032,2.92035398 L5.64336313,4.51887935 C5.95103245,4.7719767 5.99557552,5.22654897 5.74218289,5.53451327 C5.59970501,5.70825988 5.39292035,5.79793569 5.18436608,5.79793569 L5.18436608,5.79793569 Z" id="svg_20" fill="#F9A11D"></path>
                    <path d="M9.5778767,4.09882006 C9.17935103,4.09882006 8.85634189,3.77581091 8.85634189,3.37728584 L8.85634189,0.900294985 C8.85634189,0.501769912 9.17935103,0.178761062 9.5778767,0.178761062 C9.97640236,0.178761062 10.2994103,0.501769912 10.2994103,0.900294985 L10.2994103,3.37728584 C10.2994103,3.77581091 9.97640118,4.09882006 9.5778767,4.09882006 Z" id="svg_21" fill="#F9A11D"></path>
                    <g id="svg_22" transform="translate(12.979351, 2.654867)" fill="#F9A11D">
                        <g id="svg_23">
                            <path d="M0.992035103,3.14306814 C0.783480236,3.14306814 0.576991445,3.05339233 0.434218289,2.87964572 C0.181120354,2.5719764 0.225368732,2.11710914 0.533038053,1.8640118 L2.47699086,0.265486431 C2.78495634,0.0123890855 3.23952861,0.0569321534 3.49262419,0.364601475 C3.74572212,0.672270796 3.70147375,1.12713805 3.39380442,1.38023599 L1.4498528,2.97876077 C1.31563392,3.08938024 1.15339233,3.14306814 0.992035103,3.14306814 L0.992035103,3.14306814 Z" id="svg_24"></path>
                        </g>
                    </g>
                    <path d="M18.1601782,9.66371622 L15.679351,9.66371622 C15.2808254,9.66371622 14.9578174,9.34070826 14.9578174,8.9421826 C14.9578174,8.54365693 15.2808254,8.22064897 15.679351,8.22064897 L18.1601782,8.22064897 C18.5587027,8.22064897 18.8817118,8.54365811 18.8817118,8.9421826 C18.8817118,9.34070708 18.5587027,9.66371622 18.1601782,9.66371622 L18.1601782,9.66371622 Z" id="svg_25" fill="#F9A11D"></path>
                </g>
            </g>
        </g>
    </g>
</svg>